<svg width="36" height="39" viewBox="0 0 36 39" fill="none" xmlns="http://www.w3.org/2000/svg">
<path d="M14.2952 11.9798L26.3308 19.4872L14.2952 27.0145V24.3871C14.2952 23.3424 14.8421 22.3808 15.7284 21.8599L19.7842 19.4872L15.7256 17.0973C14.8421 16.5764 14.298 15.6147 14.298 14.5758V11.9798H14.2952Z" fill="#0061FE"/>
<path d="M35.9937 24.1581C34.9896 28.1421 32.7317 31.6139 29.6744 34.1039C26.5554 36.6483 22.6034 38.1681 18.2952 38.1681C17.1368 38.1681 16.0036 38.0565 14.9041 37.8476C10.1106 36.9317 5.9791 34.1068 3.28645 30.1771C1.03696 26.8942 -0.202779 22.8358 0.0272185 18.4739C0.540505 8.69692 8.65211 0.854722 18.2475 0.831825C22.6062 0.817514 26.6087 2.36019 29.7558 4.94755C30.4738 5.53714 31.147 6.17826 31.7668 6.87089C31.7696 6.87375 31.7725 6.87661 31.7753 6.87947C31.7921 6.89951 31.8117 6.91668 31.8314 6.93672C31.8314 6.93958 31.8342 6.93958 31.8342 6.93958C31.837 6.94244 31.8426 6.94816 31.8454 6.95103C31.9828 7.10558 32.1146 7.263 32.2465 7.42041C32.2942 7.47766 32.339 7.53204 32.3839 7.58928C32.3895 7.59787 32.3979 7.60645 32.4035 7.61504C32.4765 7.7009 32.5438 7.78677 32.6111 7.87263C32.6784 7.95849 32.7457 8.04436 32.8102 8.13022C32.813 8.13594 32.8158 8.13881 32.8187 8.14167C32.8299 8.15884 32.8439 8.17315 32.8551 8.19032C32.8691 8.2075 32.8804 8.22181 32.8916 8.23898C32.9365 8.29908 32.9813 8.35919 33.0262 8.42215C33.0402 8.44219 33.0543 8.45936 33.0683 8.4794C33.1328 8.56812 33.1945 8.65685 33.2562 8.74557C33.3376 8.86578 33.4133 8.98885 33.4834 9.11193C33.5058 9.14913 33.5255 9.18634 33.5451 9.22355C33.9013 9.89901 34.0668 10.6145 34.0668 11.3129C34.0668 11.3759 34.064 11.4388 34.0612 11.5018C34.0584 11.5562 34.0556 11.6077 34.0528 11.6592C34.05 11.705 34.0444 11.7508 34.0388 11.7937C34.036 11.8109 34.036 11.8281 34.0332 11.8424C34.0275 11.8968 34.0191 11.9483 34.0107 12.0027C34.0051 12.0341 34.0023 12.0628 33.9967 12.0942C33.9967 12.0971 33.9939 12.1 33.9939 12.1C33.9883 12.1286 33.9827 12.1601 33.9771 12.1887C33.9714 12.2202 33.963 12.2517 33.9574 12.2803C33.9434 12.3433 33.9294 12.4034 33.9125 12.4663C33.8957 12.5264 33.8789 12.5865 33.8593 12.6495C33.8508 12.681 33.8396 12.7096 33.8312 12.7382C33.82 12.7697 33.8116 12.7983 33.8004 12.827C33.7891 12.8556 33.7779 12.8871 33.7667 12.9157C33.7218 13.033 33.6713 13.1504 33.618 13.262C33.59 13.3192 33.5619 13.3765 33.5339 13.4309C33.5058 13.4881 33.475 13.5425 33.4413 13.594C33.4245 13.6198 33.4105 13.6484 33.3937 13.6741C33.3768 13.6999 33.36 13.7285 33.3432 13.7543C33.3263 13.78 33.3095 13.8058 33.2899 13.8344C33.273 13.8602 33.2534 13.8859 33.2366 13.9117C33.1833 13.989 33.1272 14.0634 33.0683 14.1378L33.0655 14.1407C33.0262 14.1893 32.9869 14.2351 32.9477 14.2838C32.928 14.3067 32.9056 14.3324 32.886 14.3525C32.8635 14.3754 32.8439 14.3983 32.8215 14.4211C32.7794 14.4669 32.7345 14.5099 32.6896 14.5557C32.6672 14.5786 32.6448 14.5986 32.6223 14.6215C32.5999 14.6415 32.5746 14.6644 32.5522 14.6845C32.5045 14.7274 32.4568 14.7675 32.4091 14.8075C32.3839 14.8276 32.3587 14.8476 32.3334 14.8648C32.2044 14.965 32.0698 15.0565 31.9295 15.1395C31.9071 15.1538 31.8818 15.1682 31.8594 15.1796C31.8314 15.1968 31.8033 15.2111 31.7753 15.2283C31.621 15.3113 31.4583 15.3857 31.2928 15.4515C31.2704 15.4601 31.2451 15.4687 31.2227 15.4773C31.1806 15.4944 31.1386 15.5059 31.0965 15.5202C31.0684 15.5288 31.0404 15.5374 31.0123 15.546C30.9001 15.5803 30.7851 15.6089 30.6673 15.6347C30.6309 15.6433 30.5944 15.649 30.558 15.6576C30.5327 15.6633 30.5047 15.6662 30.4794 15.6719C30.4458 15.6776 30.4121 15.6833 30.3784 15.6891C30.3616 15.6919 30.3448 15.6948 30.328 15.6948C30.2999 15.7005 30.2691 15.7034 30.2382 15.7062C30.1737 15.712 30.1092 15.7177 30.0419 15.7234C30.0166 15.7263 29.9886 15.7263 29.9633 15.7291C29.9325 15.732 29.9016 15.732 29.868 15.732C29.8287 15.732 29.7894 15.7349 29.7502 15.7349C28.1963 10.792 23.658 7.21148 18.298 7.21148C14.3347 7.21148 10.8175 9.16917 8.62407 12.1887V12.1916C8.07151 12.95 7.60871 13.7743 7.24128 14.6501C6.85702 15.566 6.57934 16.5363 6.42226 17.5494C6.25678 18.6227 6.22312 19.739 6.34934 20.8838C6.52604 22.5238 7.03092 24.0722 7.79664 25.4632C8.15566 26.1158 8.57078 26.7311 9.03638 27.3064C9.14577 27.4409 9.26077 27.5754 9.37577 27.7099C9.71235 28.0877 10.0686 28.4455 10.4472 28.7804C10.4977 28.8262 10.551 28.8691 10.6043 28.9149C10.6492 28.955 10.694 28.9922 10.7417 29.0294C10.8175 29.0924 10.8932 29.1525 10.9689 29.2126C11.011 29.2469 11.0559 29.2813 11.0979 29.3127C11.2101 29.3986 11.3223 29.4845 11.4373 29.5646C11.4934 29.6075 11.5523 29.6476 11.6112 29.6848C11.6589 29.7192 11.7094 29.7535 11.7571 29.785C11.7627 29.7878 11.7683 29.7907 11.7739 29.7964C11.8468 29.8451 11.9198 29.8909 11.9927 29.9367C12.1021 30.0082 12.2143 30.0769 12.3293 30.1427C12.3798 30.1714 12.4274 30.2 12.4779 30.2286C12.4948 30.2401 12.5144 30.2486 12.534 30.2601C12.5845 30.2887 12.635 30.3173 12.6855 30.3431C12.6939 30.3488 12.7023 30.3517 12.7079 30.3574C12.7668 30.3889 12.8257 30.4204 12.8846 30.449C13.0108 30.5148 13.1371 30.5778 13.2661 30.6379C13.3306 30.6694 13.3951 30.698 13.4596 30.7266C13.5241 30.7581 13.5886 30.7839 13.6532 30.8125C13.914 30.9241 14.1805 31.03 14.4497 31.1216C14.5058 31.1416 14.5647 31.1617 14.6208 31.1788C14.6236 31.1788 14.6292 31.1817 14.632 31.1817C14.6433 31.1874 14.6545 31.1903 14.6657 31.1931C14.6713 31.196 14.6769 31.1989 14.6825 31.1989C14.7414 31.2189 14.8003 31.2361 14.8564 31.2533C14.9181 31.2733 14.9798 31.2905 15.0444 31.3105C15.0612 31.3162 15.078 31.3191 15.0948 31.3248C15.2239 31.362 15.3501 31.3935 15.4819 31.425C15.552 31.4422 15.6222 31.4593 15.6923 31.4736C15.8185 31.5023 15.9447 31.528 16.0709 31.5509C16.0793 31.5538 16.0878 31.5538 16.0962 31.5566C16.1186 31.5624 16.1382 31.5652 16.1607 31.5681C16.1663 31.5681 16.1719 31.5709 16.1775 31.5709C16.228 31.5824 16.2813 31.591 16.3346 31.5967C16.4047 31.6082 16.4776 31.6196 16.5506 31.631C17.953 31.8314 19.3133 31.7856 20.6036 31.5309C20.7747 31.4994 20.9429 31.4622 21.1084 31.4193C21.2206 31.3935 21.33 31.3649 21.4422 31.3334C21.8826 31.2132 22.3145 31.0644 22.7324 30.8955C22.8895 30.8325 23.0466 30.7638 23.198 30.6951C23.2485 30.6722 23.3018 30.6493 23.3523 30.6236C23.4533 30.5749 23.5543 30.5263 23.6552 30.4748C23.8039 30.4003 23.9525 30.3202 24.0984 30.2372C24.1012 30.2372 24.104 30.2343 24.1068 30.2315C24.2022 30.1771 24.2975 30.1227 24.3929 30.0655C24.4406 30.0369 24.4883 30.0082 24.5359 29.9767C24.6313 29.9195 24.7267 29.8565 24.8192 29.7936C24.8669 29.7649 24.9118 29.7335 24.9595 29.6991C25.0072 29.6676 25.052 29.6362 25.0969 29.6047C25.1278 29.5846 25.1558 29.5646 25.1867 29.5417C25.2933 29.4673 25.3998 29.3871 25.5036 29.307C25.5373 29.2813 25.5709 29.2584 25.6018 29.2297C25.7084 29.1467 25.8122 29.0637 25.9159 28.975C25.9468 28.9492 25.9776 28.9235 26.0085 28.8977C26.0562 28.8577 26.1039 28.8147 26.1515 28.7747C26.1936 28.7374 26.2357 28.7002 26.2778 28.663C26.3198 28.6258 26.3619 28.5886 26.4012 28.5486C26.5246 28.4341 26.6452 28.3167 26.763 28.1965C26.8023 28.1593 26.8415 28.1164 26.8808 28.0763C26.9537 28.0019 27.0238 27.9275 27.0912 27.8502C27.136 27.8015 27.1809 27.7529 27.223 27.7042C27.2595 27.6613 27.2987 27.6212 27.3324 27.5783C27.4418 27.4495 27.5512 27.3207 27.6549 27.189C27.6914 27.1461 27.7251 27.1003 27.7587 27.0574C27.7952 27.0116 27.826 26.9687 27.8597 26.9229C27.8934 26.8771 27.927 26.8313 27.9607 26.7855C27.9943 26.7397 28.028 26.6939 28.0588 26.6481C28.1262 26.5537 28.1879 26.4621 28.2524 26.3648C28.3141 26.2732 28.3758 26.1787 28.4347 26.0843C28.4375 26.0814 28.4375 26.0785 28.4403 26.0757C28.4627 26.0385 28.4852 26.0041 28.5076 25.9669C28.5329 25.9269 28.5553 25.8868 28.5805 25.8467C28.5974 25.821 28.6142 25.7923 28.6282 25.7637C28.645 25.738 28.6591 25.7093 28.6759 25.6807C28.7124 25.6206 28.746 25.5605 28.7797 25.4975C29.2341 24.6761 30.0587 24.1438 30.9843 24.1438H35.9937V24.1581Z" fill="#0061FE"/>
<path d="M30.9783 24.1582C30.0527 24.1582 29.2281 24.6906 28.7737 25.512C28.7401 25.5721 28.7064 25.6322 28.6699 25.6952C28.6531 25.7238 28.6391 25.7495 28.6223 25.7782C28.6054 25.8068 28.5886 25.8325 28.5746 25.8612C28.5493 25.9012 28.5269 25.9413 28.5017 25.9814C28.4792 26.0186 28.4568 26.0558 28.4343 26.0901C28.4315 26.093 28.4315 26.0959 28.4287 26.0987C28.3698 26.1932 28.3109 26.2876 28.2464 26.3792C28.1819 26.4737 28.1174 26.5681 28.0529 26.6626C28.022 26.7083 27.9884 26.7541 27.9547 26.7999C27.9211 26.8457 27.8874 26.8915 27.8537 26.9373C27.8201 26.9831 27.7864 27.026 27.7528 27.0718C27.7191 27.1176 27.6854 27.1606 27.649 27.2035C27.5452 27.3352 27.4386 27.4668 27.3264 27.5927C27.29 27.6357 27.2535 27.6786 27.217 27.7187C27.175 27.7673 27.1301 27.816 27.0852 27.8646C27.0179 27.9419 26.9478 28.0163 26.8748 28.0907C26.8384 28.1308 26.7963 28.1709 26.757 28.211C26.6392 28.3312 26.5186 28.4485 26.3952 28.563C26.3559 28.6031 26.3139 28.6403 26.2718 28.6775C26.2297 28.7147 26.1877 28.7548 26.1456 28.7891C26.0979 28.832 26.0502 28.8721 26.0025 28.9122C25.9717 28.9379 25.9408 28.9637 25.91 28.9895C25.8062 29.0753 25.7024 29.1612 25.5958 29.2442C25.5622 29.2699 25.5313 29.2957 25.4977 29.3215C25.3939 29.4016 25.2873 29.4817 25.1807 29.5561C25.1499 29.579 25.1218 29.5991 25.091 29.6191C25.0461 29.6535 24.9984 29.6849 24.9535 29.7136C24.9087 29.7451 24.861 29.7765 24.8133 29.808C24.7207 29.871 24.6254 29.9311 24.53 29.9912C24.4823 30.0227 24.4346 30.0513 24.3869 30.0799C24.2916 30.1372 24.1962 30.1915 24.1009 30.2459C24.098 30.2488 24.0952 30.2488 24.0924 30.2516C23.9466 30.3346 23.7979 30.4148 23.6493 30.4892C23.5483 30.5407 23.4473 30.5894 23.3463 30.638C23.2959 30.6638 23.2454 30.6867 23.1921 30.7096C23.0378 30.7811 22.8836 30.847 22.7265 30.9099C22.3086 31.0817 21.8766 31.2276 21.4363 31.3478C21.3269 31.3793 21.2147 31.4079 21.1025 31.4337C20.9342 31.4766 20.7659 31.5138 20.5976 31.5453C19.3102 31.8029 17.947 31.8458 16.5446 31.6455C16.4717 31.634 16.3987 31.6226 16.3286 31.6112C16.2753 31.6026 16.2248 31.594 16.1716 31.5854C16.1659 31.5854 16.1603 31.5825 16.1547 31.5825C16.1323 31.5797 16.1127 31.5768 16.0902 31.5711C16.0818 31.5682 16.0734 31.5682 16.065 31.5654C15.9388 31.5425 15.8125 31.5167 15.6863 31.4881C15.6162 31.4738 15.5461 31.4566 15.476 31.4394C15.3469 31.4079 15.2179 31.3736 15.0889 31.3393C15.0721 31.3335 15.0552 31.3307 15.0384 31.3249C14.9739 31.3078 14.9122 31.2877 14.8505 31.2677C14.7916 31.2505 14.7327 31.2334 14.6766 31.2133C14.671 31.2105 14.6654 31.2076 14.6597 31.2076C14.6485 31.2047 14.6373 31.2019 14.6261 31.1961C14.6233 31.1961 14.6177 31.1933 14.6149 31.1933C14.556 31.1761 14.4999 31.1561 14.4438 31.136C14.1745 31.0445 13.908 30.9414 13.6472 30.8269C13.5827 30.8012 13.5182 30.7726 13.4537 30.7411C13.3891 30.7124 13.3246 30.6838 13.2601 30.6523C13.1311 30.5922 13.0049 30.5293 12.8787 30.4634C12.8198 30.4348 12.7609 30.4033 12.702 30.3719C12.6935 30.369 12.6851 30.3633 12.6795 30.3575C12.629 30.3318 12.5786 30.3032 12.5281 30.2745C12.5084 30.2631 12.4916 30.2545 12.472 30.2431C12.4215 30.2144 12.371 30.1858 12.3233 30.1572C12.2111 30.0914 12.0989 30.0227 11.9867 29.9511C11.9138 29.9053 11.8409 29.8595 11.768 29.8109C11.7623 29.808 11.7567 29.8052 11.7511 29.7994C11.7034 29.7679 11.653 29.7336 11.6053 29.6993C11.5464 29.6592 11.4875 29.6191 11.4314 29.579C11.3164 29.4989 11.2014 29.413 11.092 29.3272C11.0471 29.2957 11.005 29.2614 10.963 29.227C10.8872 29.1669 10.8115 29.1068 10.7358 29.0438C10.6881 29.0066 10.6432 28.9666 10.5983 28.9293C10.545 28.8836 10.4946 28.8406 10.4413 28.7948C10.0626 28.46 9.70639 28.1022 9.36981 27.7244C9.25481 27.5927 9.137 27.4582 9.03042 27.3208C8.56482 26.7456 8.1497 26.1302 7.79068 25.4776C7.02496 24.0866 6.52009 22.5382 6.34338 20.8983C6.21997 19.7534 6.25082 18.6372 6.41631 17.5639C6.57338 16.5507 6.85106 15.5804 7.23532 14.6646C7.60556 13.7888 8.06836 12.9645 8.61811 12.206V12.2031C10.8143 9.18361 14.3316 7.22306 18.2948 7.22306C23.6549 7.22306 28.1931 10.8036 29.747 15.7464C29.7863 15.7464 29.8255 15.7464 29.8648 15.7436C29.8957 15.7436 29.9293 15.7407 29.9602 15.7407C29.9854 15.7407 30.0135 15.7379 30.0387 15.735C30.106 15.7293 30.1705 15.7264 30.235 15.7178C30.2659 15.715 30.294 15.7121 30.3248 15.7064C30.3416 15.7035 30.3585 15.7006 30.3753 15.7006C30.4089 15.6949 30.4426 15.6921 30.4763 15.6835C30.5043 15.6778 30.5296 15.6749 30.5548 15.6692C30.5913 15.6634 30.6305 15.6549 30.6642 15.6463C30.782 15.6205 30.897 15.5919 31.0092 15.5575C31.0372 15.549 31.0653 15.5404 31.0933 15.5318C31.1354 15.5175 31.1775 15.5032 31.2196 15.4889C31.2448 15.4803 31.2672 15.4717 31.2897 15.4631C31.458 15.3973 31.6178 15.3229 31.7721 15.2399C31.8002 15.2227 31.8282 15.2084 31.8563 15.1912C31.8815 15.1769 31.9039 15.1654 31.9264 15.1511C32.0666 15.0681 32.2012 14.9737 32.3303 14.8764C32.3555 14.8563 32.3808 14.8392 32.406 14.8191C32.4537 14.779 32.5042 14.739 32.549 14.696C32.5743 14.676 32.5967 14.6531 32.6192 14.6331C32.6416 14.613 32.6668 14.5901 32.6865 14.5673C32.7314 14.5243 32.7762 14.4785 32.8183 14.4327C32.8407 14.4098 32.8604 14.3869 32.8828 14.364C32.9053 14.3411 32.9249 14.3182 32.9445 14.2954C32.9838 14.2496 33.0231 14.2009 33.0623 14.1522C33.0623 14.1522 33.0623 14.1494 33.0651 14.1494C33.124 14.075 33.1801 14.0006 33.2334 13.9233C33.2503 13.8975 33.2699 13.8718 33.2867 13.846C33.3035 13.8202 33.3232 13.7945 33.34 13.7659C33.3568 13.7401 33.3737 13.7143 33.3905 13.6857C33.4073 13.66 33.4242 13.6313 33.4382 13.6056C33.4718 13.5512 33.4999 13.4968 33.5307 13.4424C33.5588 13.3881 33.5868 13.3308 33.6149 13.2736C33.6682 13.1591 33.7187 13.0446 33.7635 12.9273C33.7748 12.8986 33.786 12.87 33.7972 12.8385C33.8084 12.8099 33.8168 12.7784 33.8281 12.7498C33.8393 12.7212 33.8477 12.6897 33.8561 12.6611C33.8757 12.601 33.8926 12.5409 33.9094 12.4779C33.9262 12.4178 33.9403 12.3548 33.9543 12.2919C33.9599 12.2604 33.9683 12.2289 33.9739 12.2003C33.9795 12.1717 33.9851 12.1402 33.9907 12.1116C33.9907 12.1087 33.9907 12.1058 33.9935 12.1058C33.9992 12.0743 34.002 12.0457 34.0076 12.0142C34.016 11.9627 34.0244 11.9083 34.03 11.854C34.0328 11.8368 34.0328 11.8196 34.0356 11.8053C34.0412 11.7595 34.044 11.7166 34.0496 11.6708C34.0552 11.6193 34.0581 11.5649 34.0581 11.5134C34.0609 11.4504 34.0637 11.3874 34.0637 11.3245C34.0637 10.6261 33.901 9.91059 33.542 9.23513C33.5223 9.19792 33.5027 9.16072 33.4803 9.12351C33.4129 9.00044 33.3372 8.87737 33.2531 8.75716C33.1914 8.66843 33.1297 8.57971 33.0651 8.49098C33.0511 8.47095 33.0371 8.45091 33.0231 8.43374C32.9782 8.37363 32.9333 8.31067 32.8884 8.25056C32.8772 8.23339 32.8632 8.21908 32.852 8.20191C32.8407 8.18473 32.8267 8.16756 32.8155 8.15325C32.8127 8.14753 32.8099 8.14467 32.8071 8.1418C32.7426 8.05594 32.6781 7.97008 32.6079 7.88421C32.5406 7.79835 32.4733 7.71249 32.4004 7.62662C32.3948 7.61804 32.3864 7.60945 32.3808 7.60086V7.598C32.2097 7.37476 32.0302 7.16296 31.8422 6.95975C31.8394 6.95403 31.8338 6.95116 31.831 6.9483C31.831 6.9483 31.831 6.9483 31.8282 6.94544C31.8086 6.9254 31.7917 6.90537 31.7721 6.8882C31.7693 6.88534 31.7665 6.88247 31.7637 6.87961C31.141 6.18698 30.4679 5.54587 29.7526 4.95627C28.8607 4.34378 27.6518 3.72842 26.0755 3.33345C26.0642 3.33059 26.0558 3.32773 26.0446 3.32773C25.3154 3.14741 24.5047 3.01289 23.6128 2.94706C19.5626 2.59502 16.4941 3.6769 16.4941 3.6769C16.093 3.79997 15.6975 3.93735 15.3077 4.08905C15.1169 4.16346 14.929 4.24074 14.7439 4.32374C14.7355 4.31229 14.7271 4.31802 14.7271 4.31802C8.57323 7.01985 4.23975 13.4882 4.23975 21.0442C4.23975 28.6718 8.65738 35.1945 14.9038 37.8477C16.0005 38.0566 17.1364 38.1683 18.2948 38.1683C22.6031 38.1683 26.5551 36.6485 29.6741 34.1041C32.7314 31.6169 34.9893 28.1423 35.9934 24.1582H30.9783Z" fill="#0061FE"/>
<path d="M35.993 24.1575H30.978C30.0552 24.1575 29.2278 24.6899 28.7734 25.5113C27.0203 28.6882 23.9182 30.9894 20.2579 31.6047C19.0714 31.8051 17.8261 31.828 16.5471 31.6419C14.2387 31.3099 12.1322 30.2824 10.4381 28.7856C10.4381 28.7856 10.7887 29.192 11.4871 29.7444C11.5404 29.7844 11.5965 29.8245 11.6526 29.8674C11.661 29.8732 11.6694 29.8817 11.6779 29.8875C12.2444 30.2739 12.8363 30.6259 13.4505 30.9465C13.4701 30.955 13.487 30.9636 13.5066 30.9751C13.5655 31.0066 13.6244 31.0352 13.6833 31.0609C14.7548 31.5962 15.8935 32.0226 17.0856 32.3231C17.0884 32.3231 17.0912 32.326 17.094 32.326C17.8934 32.5263 18.7152 32.6723 19.5595 32.7553C20.2186 32.8211 20.8721 32.8469 21.5172 32.8354C22.5466 32.8183 23.5564 32.7067 24.5381 32.5092C24.5577 32.5063 24.5773 32.5034 24.597 32.5006L24.5998 32.4977C29.4381 31.5103 33.6173 28.4307 35.993 24.1575Z" fill="#0061FE"/>
</svg>
