<svg width="404" height="404" viewBox="0 0 404 404" fill="none" xmlns="http://www.w3.org/2000/svg">
<path fill-rule="evenodd" clip-rule="evenodd" d="M332.644 359.562C366.915 332.653 392.226 295.135 403.482 252.08V251.925H347.327C336.951 251.925 327.708 257.678 322.614 266.555C322.237 267.236 321.859 267.885 321.451 268.535C321.377 268.656 321.308 268.776 321.24 268.895C321.134 269.081 321.031 269.262 320.916 269.432C320.759 269.741 320.57 270.05 320.382 270.329C320.24 270.545 320.107 270.762 319.973 270.978C319.839 271.195 319.706 271.411 319.564 271.628C319.438 271.829 319.313 272.022 319.187 272.216C319.061 272.409 318.935 272.602 318.81 272.803C318.778 272.834 318.778 272.865 318.747 272.896C318.086 273.917 317.395 274.937 316.703 275.927C315.98 276.979 315.288 277.968 314.534 278.989C314.188 279.484 313.811 279.978 313.434 280.472L313.433 280.474L312.301 281.958C312.238 282.041 312.175 282.124 312.113 282.205C311.806 282.61 311.509 283 311.169 283.412C311.054 283.554 310.939 283.698 310.823 283.844C310.559 284.175 310.29 284.513 310.006 284.835C308.843 286.258 307.616 287.65 306.39 289.041C306.162 289.321 305.912 289.59 305.659 289.861C305.493 290.039 305.326 290.218 305.164 290.402C304.692 290.928 304.189 291.454 303.686 291.98C302.932 292.815 302.145 293.619 301.328 294.423C301.181 294.568 301.034 294.715 300.888 294.863C300.594 295.159 300.301 295.454 300.007 295.722C298.687 297.021 297.335 298.289 295.951 299.527C295.512 299.959 295.04 300.361 294.569 300.763L294.568 300.764L293.153 301.97C292.886 302.187 292.618 302.411 292.351 302.636C292.084 302.86 291.817 303.084 291.55 303.3L290.512 304.135C289.349 305.094 288.185 305.991 286.991 306.888C286.737 307.114 286.468 307.307 286.193 307.504C286.092 307.576 285.991 307.648 285.89 307.723C284.727 308.589 283.532 309.455 282.337 310.259C281.991 310.507 281.677 310.723 281.331 310.94C280.828 311.28 280.325 311.62 279.79 311.96C279.256 312.332 278.753 312.672 278.218 312.981C277.181 313.662 276.112 314.342 275.043 314.961C274.508 315.301 273.974 315.61 273.439 315.919C272.373 316.537 271.307 317.123 270.24 317.709L270.232 317.713C270.201 317.744 270.169 317.775 270.138 317.775C268.503 318.672 266.836 319.538 265.17 320.342C264.038 320.899 262.906 321.425 261.774 321.951C261.341 322.164 260.888 322.359 260.446 322.55C260.311 322.608 260.177 322.666 260.045 322.724C258.347 323.466 256.586 324.209 254.826 324.889C250.141 326.714 245.299 328.322 240.363 329.621C239.105 329.962 237.879 330.271 236.621 330.549C234.766 331.013 232.879 331.415 230.961 331.756C216.498 334.508 201.249 335.003 185.528 332.838C184.711 332.714 183.893 332.591 183.107 332.467C182.51 332.405 181.912 332.312 181.346 332.189C181.315 332.189 181.284 332.181 181.252 332.173C181.221 332.165 181.189 332.158 181.158 332.158C180.906 332.127 180.686 332.096 180.435 332.034C180.387 332.018 180.34 332.011 180.293 332.003C180.246 331.995 180.199 331.988 180.152 331.972C178.737 331.725 177.322 331.446 175.907 331.137C175.121 330.982 174.335 330.797 173.549 330.611C172.071 330.271 170.656 329.931 169.21 329.529C169.116 329.498 169.021 329.475 168.927 329.451C168.833 329.428 168.738 329.405 168.644 329.374C168.344 329.284 168.049 329.2 167.758 329.116C167.347 328.998 166.942 328.882 166.537 328.755C166.394 328.713 166.249 328.671 166.102 328.628C165.607 328.483 165.098 328.335 164.588 328.168C164.525 328.168 164.462 328.137 164.399 328.106C164.274 328.075 164.148 328.044 164.022 327.982C164.006 327.982 163.983 327.974 163.959 327.967C163.936 327.959 163.912 327.951 163.896 327.951C163.267 327.766 162.607 327.549 161.978 327.333C158.96 326.343 155.973 325.198 153.049 323.992C152.808 323.889 152.566 323.789 152.325 323.69C151.843 323.49 151.361 323.291 150.879 323.064C150.156 322.755 149.433 322.446 148.71 322.105C147.264 321.456 145.849 320.775 144.434 320.064C143.774 319.755 143.113 319.415 142.453 319.074C142.415 319.037 142.365 319.011 142.311 318.982C142.276 318.964 142.239 318.944 142.202 318.92C141.636 318.641 141.07 318.332 140.504 318.023C140.416 317.974 140.329 317.929 140.243 317.886C140.114 317.82 139.988 317.757 139.875 317.682C139.592 317.528 139.317 317.373 139.042 317.219C138.767 317.064 138.491 316.909 138.208 316.755C136.919 316.043 135.662 315.301 134.435 314.528L134.432 314.526C133.616 314.031 132.799 313.537 131.983 313.012C131.92 312.95 131.857 312.919 131.794 312.888C131.26 312.548 130.694 312.177 130.159 311.806C129.499 311.404 128.839 310.971 128.21 310.507C126.921 309.641 125.664 308.713 124.407 307.786L124.406 307.785C123.934 307.445 123.431 307.073 122.959 306.702L122.958 306.701C122.109 306.052 121.261 305.403 120.412 304.723C119.878 304.321 119.375 303.919 118.872 303.486C118.66 303.31 118.449 303.139 118.239 302.969C117.855 302.658 117.477 302.352 117.111 302.032C112.866 298.413 108.873 294.547 105.1 290.464L105.099 290.462C103.81 289.009 102.522 287.556 101.296 286.103C96.0765 279.886 91.4232 273.236 87.3986 266.184C78.815 251.152 73.1555 234.419 71.1747 216.696C69.7598 204.324 70.1371 192.262 71.9922 180.663C73.7529 169.714 76.8657 159.228 81.1732 149.331C85.292 139.866 90.4799 130.958 96.6739 122.762V122.731C121.261 90.1 160.689 68.9439 205.116 68.9439C265.201 68.9439 316.074 107.637 333.493 161.053C333.713 161.053 333.933 161.046 334.153 161.038C334.373 161.03 334.593 161.022 334.813 161.022C335.191 161.022 335.537 161.022 335.882 160.991C336.024 160.976 336.173 160.968 336.323 160.96C336.472 160.953 336.621 160.945 336.763 160.93C337.517 160.868 338.241 160.806 338.964 160.744C339.31 160.713 339.655 160.682 339.97 160.62C340.158 160.62 340.347 160.589 340.536 160.558L341.668 160.373C341.809 160.342 341.959 160.319 342.108 160.295C342.257 160.272 342.407 160.249 342.548 160.218C342.752 160.172 342.957 160.133 343.161 160.094C343.366 160.056 343.57 160.017 343.774 159.971C345.095 159.692 346.384 159.383 347.642 159.012L348.585 158.734C348.742 158.682 348.899 158.634 349.057 158.586C349.371 158.49 349.685 158.393 350 158.27C350.126 158.223 350.259 158.177 350.393 158.13C350.526 158.084 350.66 158.038 350.786 157.991C352.641 157.28 354.464 156.476 356.194 155.579C356.351 155.486 356.508 155.401 356.666 155.316C356.823 155.231 356.98 155.146 357.137 155.053C357.389 154.929 357.672 154.774 357.923 154.62C359.495 153.723 361.004 152.733 362.451 151.651C362.734 151.465 363.016 151.249 363.299 151.032L363.3 151.032C363.834 150.599 364.369 150.166 364.903 149.702C365.155 149.485 365.438 149.238 365.689 149.022C365.815 148.898 365.941 148.782 366.066 148.666C366.192 148.55 366.318 148.434 366.444 148.31C366.613 148.144 366.782 147.981 366.95 147.819C367.281 147.5 367.608 147.185 367.922 146.856C368.047 146.733 368.165 146.609 368.283 146.485C368.401 146.361 368.519 146.238 368.645 146.114C368.865 145.898 369.116 145.619 369.336 145.372C369.557 145.109 369.777 144.854 369.997 144.598C370.217 144.343 370.437 144.088 370.657 143.825L370.688 143.794C371.349 142.99 371.978 142.186 372.575 141.351C372.669 141.212 372.771 141.073 372.874 140.933C372.976 140.794 373.078 140.655 373.172 140.516C373.392 140.206 373.581 139.928 373.77 139.65C373.864 139.511 373.958 139.364 374.052 139.217C374.147 139.07 374.241 138.923 374.336 138.784C374.43 138.644 374.516 138.498 374.603 138.351C374.689 138.204 374.776 138.057 374.87 137.918C375.247 137.361 375.593 136.773 375.908 136.155C376.222 135.567 376.537 134.948 376.851 134.33C377.448 133.124 378.014 131.855 378.517 130.587C378.58 130.433 378.643 130.27 378.706 130.108C378.769 129.945 378.832 129.783 378.895 129.628C378.97 129.442 379.035 129.256 379.101 129.063C379.145 128.935 379.19 128.805 379.241 128.67C379.281 128.537 379.327 128.405 379.374 128.271C379.437 128.09 379.501 127.906 379.555 127.711C379.775 127.03 379.964 126.381 380.152 125.731C380.341 125.051 380.498 124.401 380.655 123.721C380.683 123.586 380.716 123.446 380.75 123.303C380.794 123.116 380.84 122.924 380.876 122.731C380.907 122.576 380.938 122.414 380.97 122.252C381.001 122.089 381.033 121.927 381.064 121.772C381.064 121.772 381.096 121.741 381.096 121.71C381.127 121.54 381.151 121.378 381.174 121.216C381.198 121.053 381.221 120.891 381.253 120.721C381.264 120.649 381.276 120.579 381.287 120.508C381.37 119.997 381.449 119.505 381.504 118.989C381.521 118.908 381.529 118.819 381.537 118.726C381.544 118.641 381.552 118.552 381.567 118.463C381.63 117.999 381.693 117.504 381.724 117.009C381.756 116.452 381.787 115.896 381.819 115.308C381.85 114.627 381.882 113.947 381.882 113.267C381.882 105.72 380.027 97.9871 376.033 90.6877C375.813 90.2856 375.593 89.8835 375.342 89.4814C374.556 88.1514 373.707 86.8214 372.795 85.5224L372.795 85.5219C372.103 84.5632 371.411 83.6045 370.688 82.6459C370.61 82.5376 370.531 82.4371 370.453 82.3365C370.374 82.236 370.295 82.1355 370.217 82.0273C369.714 81.3468 369.211 80.6973 368.708 80.0477C368.582 79.8622 368.456 79.7075 368.299 79.5219C368.236 79.4291 368.165 79.3441 368.094 79.259C368.024 79.174 367.953 79.0889 367.89 78.9961C367.859 78.9652 367.827 78.9343 367.796 78.8724C367.073 77.9445 366.318 77.0166 365.563 76.0887L365.562 76.0868C364.808 75.1596 364.054 74.2323 363.237 73.305C363.205 73.2586 363.166 73.2122 363.127 73.1658C363.087 73.1194 363.048 73.0731 363.017 73.0267C362.514 72.4081 362.01 71.8204 361.476 71.2018C359.998 69.5006 358.52 67.7995 356.98 66.1293L356.854 66.0056C356.854 66.0056 356.823 66.0056 356.823 65.9746C356.748 65.9013 356.674 65.8315 356.6 65.7629C356.457 65.6289 356.319 65.4992 356.194 65.356L356.099 65.2632C349.151 57.7782 341.605 50.8499 333.556 44.4783C298.278 16.5176 253.411 -0.153583 204.55 0.0010666C96.9883 0.248506 6.05895 84.9965 0.305113 190.653C-2.27311 237.79 11.6241 281.649 36.8404 317.126C67.0244 359.593 113.338 390.12 167.072 400.018C179.397 402.276 192.1 403.482 205.085 403.482C253.379 403.482 297.681 387.058 332.644 359.562ZM160.282 120.492L160.25 120.473H160.282V120.492ZM160.282 120.492V148.527C160.282 159.754 166.381 170.147 176.285 175.776L221.782 201.602L176.317 227.243C166.381 232.872 160.25 243.265 160.25 254.554L160.25 282.948L295.166 201.602L160.282 120.492Z" fill="url(#paint0_linear_154_36730)"/>
<defs>
<linearGradient id="paint0_linear_154_36730" x1="267.163" y1="-2.25513" x2="27.4251" y2="313.862" gradientUnits="userSpaceOnUse">
<stop stop-color="white"/>
<stop offset="1" stop-color="white" stop-opacity="0"/>
</linearGradient>
</defs>
</svg>
