<svg width="20" height="16" viewBox="0 0 20 16" fill="none" xmlns="http://www.w3.org/2000/svg">
<path d="M19.8345 8.72664C19.8654 9.46504 19.6022 10.1855 19.1025 10.7301C18.6029 11.2746 17.9076 11.5987 17.1693 11.6313C17.1261 11.6333 17.083 11.6343 17.04 11.6343C16.8438 11.6342 16.6482 11.613 16.4566 11.571C15.888 12.4489 15.1424 13.1985 14.2676 13.7718C13.3927 14.3451 12.4078 14.7294 11.3759 14.9003C11.2538 15.2589 11.0103 15.5635 10.6875 15.7616C10.3646 15.9597 9.9827 16.0388 9.60774 15.9851C9.23279 15.9315 8.88835 15.7485 8.63398 15.4679C8.37961 15.1872 8.23128 14.8265 8.21465 14.4481C8.19801 14.0697 8.31411 13.6974 8.54288 13.3955C8.77164 13.0936 9.09869 12.8811 9.46749 12.7948C9.8363 12.7085 10.2237 12.7537 10.5627 12.9227C10.9017 13.0917 11.1709 13.3738 11.324 13.7203C12.7768 13.4516 14.0892 12.6816 15.0326 11.5446C15.976 10.4075 16.4904 8.97548 16.4863 7.49805C16.4863 4.00762 13.6467 1.16797 10.1562 1.16797C6.66579 1.16797 3.82614 4.00762 3.82614 7.49805C3.82595 8.57734 4.10179 9.63876 4.62743 10.5814C4.64525 10.6125 4.65862 10.646 4.66716 10.6808C4.71793 10.8219 4.7125 10.9771 4.652 11.1144C4.5915 11.2516 4.48055 11.3603 4.34212 11.418C4.00315 11.5607 3.6391 11.6341 3.27134 11.6341C3.22806 11.6341 3.18468 11.6331 3.14122 11.6311C2.40321 11.5981 1.70839 11.2738 1.20913 10.7292C0.709866 10.1847 0.446903 9.46447 0.4779 8.72637C0.490361 8.43203 0.483407 8.16941 0.476611 7.91547C0.470282 7.67637 0.463681 7.4291 0.47454 7.17109C0.50695 6.45041 0.81696 5.77022 1.33964 5.27299C1.86232 4.77576 2.55712 4.50006 3.27852 4.50363C4.43696 1.85316 7.08356 -0.00390625 10.1562 -0.00390625C13.2289 -0.00390625 15.8755 1.85316 17.034 4.50367C17.7554 4.49956 18.4505 4.77502 18.9732 5.27226C19.496 5.76951 19.8059 6.44989 19.8379 7.17066C19.8488 7.42906 19.8422 7.67629 19.8358 7.91539C19.8291 8.16937 19.8221 8.43211 19.8345 8.72664ZM15.0705 7.49805C15.0702 8.25092 14.897 8.99366 14.5642 9.66901C14.2315 10.3444 13.7481 10.9342 13.1513 11.3932C12.5545 11.8522 11.8603 12.1679 11.1221 12.3161C10.384 12.4644 9.62166 12.4411 8.89396 12.248L6.90485 13.3968C6.80449 13.4547 6.68919 13.4816 6.57354 13.474C6.45789 13.4665 6.34709 13.4248 6.25514 13.3542C6.16319 13.2837 6.09423 13.1874 6.05698 13.0777C6.01973 12.9679 6.01586 12.8496 6.04587 12.7377L6.55423 10.8412C5.71236 9.93128 5.24393 8.73772 5.24216 7.49805C5.24216 4.78758 7.44649 2.58266 10.1562 2.58266C12.8659 2.58266 15.0705 4.78758 15.0705 7.49805ZM8.79001 7.49805C8.79001 7.34265 8.72828 7.19361 8.61839 7.08373C8.50851 6.97384 8.35947 6.91211 8.20407 6.91211H8.2031C8.08725 6.91233 7.97408 6.94687 7.87786 7.01139C7.78165 7.0759 7.70672 7.16749 7.66254 7.27457C7.61836 7.38166 7.60691 7.49944 7.62964 7.61303C7.65238 7.72662 7.70827 7.83092 7.79026 7.91275C7.87224 7.99459 7.97665 8.05028 8.09028 8.0728C8.20391 8.09532 8.32167 8.08366 8.42867 8.03928C8.53567 7.9949 8.62712 7.9198 8.69145 7.82346C8.75579 7.72713 8.79013 7.61389 8.79013 7.49805H8.79001ZM10.7423 7.49805C10.7422 7.47887 10.7412 7.4597 10.7392 7.44063C10.7373 7.42148 10.7344 7.40244 10.7306 7.38359C10.7271 7.36482 10.7224 7.34629 10.7165 7.32812C10.7111 7.30977 10.7044 7.2918 10.6974 7.27383C10.6904 7.25586 10.6818 7.23906 10.6728 7.22227C10.6639 7.20537 10.6541 7.18895 10.6435 7.17305C10.6328 7.15698 10.6213 7.14147 10.6091 7.12656C10.597 7.11163 10.5841 7.09741 10.5704 7.08398C10.5572 7.07031 10.5427 7.05742 10.5279 7.04492C10.513 7.0332 10.4974 7.02148 10.4813 7.01094C10.4655 7.00034 10.449 6.99057 10.4322 6.98164C10.4153 6.97266 10.3978 6.96445 10.3802 6.95703C10.3626 6.94967 10.3446 6.94328 10.3263 6.93789C10.2898 6.92616 10.252 6.91856 10.2138 6.91523C10.1564 6.90971 10.0985 6.91247 10.0419 6.92344C10.0231 6.92728 10.0044 6.93211 9.9861 6.93789C9.96779 6.94326 9.9498 6.94965 9.9322 6.95703C9.91462 6.96445 9.89704 6.97266 9.88024 6.98164C9.86345 6.99062 9.84704 7.00039 9.83099 7.01094C9.81493 7.02148 9.79935 7.0332 9.78493 7.04492C9.7697 7.05742 9.75563 7.07031 9.74196 7.08398C9.72825 7.09742 9.71533 7.11164 9.70325 7.12656C9.69116 7.14147 9.67983 7.15699 9.66931 7.17305C9.65857 7.18893 9.64866 7.20536 9.63962 7.22227C9.6306 7.239 9.62251 7.25621 9.61536 7.27383C9.60795 7.29159 9.60143 7.30971 9.59583 7.32812C9.5904 7.34609 9.58571 7.36484 9.58181 7.38359C9.57795 7.40244 9.57507 7.42148 9.57317 7.44063C9.57126 7.45977 9.57044 7.47891 9.57044 7.49805C9.57044 7.51719 9.57126 7.53672 9.57317 7.55586C9.5751 7.57487 9.57798 7.59378 9.58181 7.6125C9.58571 7.63125 9.5904 7.65 9.59583 7.66836C9.60143 7.68665 9.60795 7.70464 9.61536 7.72227C9.62251 7.74001 9.6306 7.75735 9.63962 7.77422C9.64856 7.79102 9.65876 7.80742 9.66931 7.82344C9.67983 7.83937 9.69116 7.85476 9.70325 7.86953C9.71542 7.8845 9.72834 7.89884 9.74196 7.9125C9.75563 7.92578 9.7697 7.93906 9.78493 7.95117C9.79962 7.96337 9.815 7.97472 9.83099 7.98516C9.84704 7.9957 9.86341 8.00586 9.88024 8.01484C9.91417 8.03253 9.94959 8.04717 9.9861 8.05859C10.0044 8.06406 10.0232 8.06875 10.0419 8.07266C10.0796 8.08036 10.1179 8.08416 10.1564 8.08398C10.3116 8.08357 10.4604 8.02195 10.5704 7.9125C10.5974 7.88509 10.6219 7.85528 10.6435 7.82344C10.654 7.80742 10.6638 7.79102 10.6728 7.77422C10.6818 7.75742 10.69 7.73984 10.6974 7.72227C10.7048 7.70469 10.7111 7.68633 10.7165 7.66836C10.7223 7.65005 10.727 7.63139 10.7306 7.6125C10.7344 7.59378 10.7373 7.57487 10.7392 7.55586C10.7411 7.53663 10.7422 7.5173 10.7422 7.49797L10.7423 7.49805ZM12.6954 7.49805C12.6954 7.34265 12.6337 7.19361 12.5238 7.08373C12.4139 6.97384 12.2649 6.91211 12.1095 6.91211H12.1083C11.9925 6.91233 11.8793 6.94689 11.7831 7.01141C11.6869 7.07593 11.612 7.16752 11.5678 7.2746C11.5236 7.38169 11.5122 7.49946 11.5349 7.61305C11.5577 7.72664 11.6136 7.83093 11.6955 7.91277C11.7775 7.9946 11.8819 8.05029 11.9956 8.07281C12.1092 8.09532 12.227 8.08365 12.334 8.03927C12.441 7.99489 12.5324 7.91979 12.5967 7.82346C12.6611 7.72713 12.6954 7.61389 12.6954 7.49805Z" fill="#0061FE"/>
</svg>
