<svg width="260" height="258" viewBox="0 0 260 258" fill="none" xmlns="http://www.w3.org/2000/svg">
<path fill-rule="evenodd" clip-rule="evenodd" d="M129.819 0.303711C164.519 0.303711 197.143 13.6992 221.681 38.0226C246.218 62.3459 259.732 94.6855 259.732 129.084C259.732 163.482 246.218 195.822 221.682 220.145C197.143 244.469 164.521 257.865 129.819 257.865C95.1183 257.865 62.4943 244.469 37.9569 220.145C13.421 195.822 -0.0928726 163.483 -0.0928726 129.084C-0.0928726 94.6855 13.421 62.3459 37.9569 38.0226C62.4943 13.6992 95.1183 0.303711 129.819 0.303711ZM9.07108 129.084C9.07108 195.085 63.2387 248.78 129.819 248.78C196.4 248.78 250.566 195.085 250.566 129.084C250.566 63.084 196.399 9.38825 129.819 9.38825C63.2387 9.38825 9.07108 63.084 9.07108 129.084ZM77.8456 78.2263H63.4983L102.615 188.802L124.515 126.222L107.536 78.2263H92.3972V67.6895L159.436 67.6895V78.2263H143.737L182.854 188.802L196.915 148.62C210.212 111.511 196.484 92.8183 187.783 80.9703C184.413 76.3816 181.797 72.8195 181.797 69.6118C181.797 58.1224 191.112 48.809 202.601 48.809C203.223 48.809 203.826 48.8426 204.417 48.8978C184.95 30.5209 158.701 19.2515 129.818 19.2515C92.0762 19.2515 58.8332 38.489 39.3449 67.6895H77.8442L77.8456 78.2263ZM21.1175 127.955C21.1175 169.571 44.509 205.718 78.8569 223.985L29.8027 85.3187C24.215 98.4107 21.1175 112.821 21.1175 127.955ZM223.12 104.168C225.506 93.838 225.976 83.5486 224.422 74.393C233.393 90.2033 238.52 108.48 238.52 127.957C238.52 169.52 215.189 205.628 180.913 223.917L218.316 119.133C219.709 115.725 220.935 112.255 221.908 108.864L223.552 104.168H223.12ZM96.2945 231.376C106.855 234.798 118.12 236.653 129.819 236.653C140.979 236.653 151.745 234.968 161.88 231.845L130.083 141.964L96.2945 231.376Z" fill="url(#paint0_linear_154_36733)"/>
<defs>
<linearGradient id="paint0_linear_154_36733" x1="129.819" y1="-1.95949" x2="152.684" y2="211.097" gradientUnits="userSpaceOnUse">
<stop stop-color="#FF0808"/>
<stop offset="0.0001" stop-color="white" stop-opacity="0.934"/>
<stop offset="1" stop-color="white" stop-opacity="0"/>
</linearGradient>
</defs>
</svg>
