<svg width="24" height="24" viewBox="0 0 24 24" fill="none" xmlns="http://www.w3.org/2000/svg">
<mask id="mask0_221_16595" style="mask-type:alpha" maskUnits="userSpaceOnUse" x="0" y="0" width="24" height="24">
<rect width="24" height="24" fill="#D9D9D9"/>
</mask>
<g mask="url(#mask0_221_16595)">
<path d="M16.6115 12.75H5.25C5.03717 12.75 4.859 12.6782 4.7155 12.5345C4.57183 12.391 4.5 12.2129 4.5 12C4.5 11.7872 4.57183 11.609 4.7155 11.4655C4.859 11.3219 5.03717 11.25 5.25 11.25H16.6115L13.3193 7.95777C13.1706 7.80894 13.0972 7.63485 13.099 7.43552C13.101 7.23619 13.1744 7.05894 13.3193 6.90377C13.4744 6.74877 13.6526 6.66869 13.8538 6.66352C14.0551 6.65835 14.2333 6.73335 14.3885 6.88852L18.8673 11.3673C18.9609 11.4609 19.0269 11.5597 19.0652 11.6635C19.1037 11.7674 19.123 11.8795 19.123 12C19.123 12.1205 19.1037 12.2327 19.0652 12.3365C19.0269 12.4404 18.9609 12.5391 18.8673 12.6328L14.3885 17.1115C14.2397 17.2602 14.0631 17.3336 13.8587 17.3318C13.6542 17.3298 13.4744 17.2513 13.3193 17.0963C13.1744 16.9411 13.0994 16.7654 13.0943 16.5693C13.0891 16.3731 13.1641 16.1974 13.3193 16.0423L16.6115 12.75Z" fill="white"/>
</g>
</svg>
